# xmcd
#
# Track frame offsets:
#	150
#	18525
#	38250
#	56100
#	76275
#	95025
#	110550
#	125400
#	142275
#	158475
#	175650
#	190725
#	208200
#	225900
#	248550
#	266250
#
# Disc length: 3832 seconds
#
# Revision: 0
# Processed by: cddbd v1.5.2PL0 Copyright (c) Steve Scherf et al.
# Submitted via: EZCDAudioConverter 1.2.3.1
#
DISCID=ce0ef610
DTITLE=鑑聽寶典 ADMS
DYEAR=1900
DGENRE=Pop
TTITLE0=薛凱琪 - 奇洛李維斯回信
TTITLE1=鄭中基 - 人若然忘記了愛
TTITLE2=古巨基 - 任天堂流淚
TTITLE3=側田 - 愛的習慣
TTITLE4=楊千樺 - 煉金術
TTITLE5=鄭秀文 - 終身美麗
TTITLE6=周國賢 - 目黑
TTITLE7=梁漢文 - 一再問究竟 
TTITLE8=鄭中基 - 閉目入神
TTITLE9=RubberBand - Easy
TTITLE10=楊千樺 - 處處吻
TTITLE11=古巨基 - 必殺技
TTITLE12=梁漢文 - 零時十幾分
TTITLE13=側田 - 情歌
TTITLE14=吳雨霏 - 座右銘
TTITLE15=蘇永康 - 紅顏知己
EXTD=
EXTT0=
EXTT1=
EXTT2=
EXTT3=
EXTT4=
EXTT5=
EXTT6=
EXTT7=
EXTT8=
EXTT9=
EXTT10=
EXTT11=
EXTT12=
EXTT13=
EXTT14=
EXTT15=
PLAYORDER=
